<svg xmlns="http://www.w3.org/2000/svg" width="200mm" height="12mm" viewBox="0 0 708.661 42.52"><g style="line-height:125%"><path d="M56.087 29.783l-.28 1.229q-1.099.129-1.68.129-.927 0-2.458-.15-1.637-.152-2.801-.152-.927 0-1.918.302.883-2.478 2.004-6.896l1.66-6.466-5.82.216q-1.53.086-3.146.237-1.465 5.754-3.017 8.513-1.551 2.758-3.556 4.051-1.982 1.315-3.814 1.315-1.789 0-3.06-.862-.927-.604-.927-1.509 0-.539.366-.905.367-.388.884-.388.84 0 1.724 1.185.539.712.862.927.345.194.754.194 1.681 0 3.147-2.715 1.487-2.716 4.331-13.427l2.112-7.887q-4.31 0-6.486 1.422-2.156 1.422-2.156 3.211 0 .604.582 1.53.518.862.518 1.401 0 .625-.41 1.035-.388.387-.991.387-.755 0-1.293-.71-.54-.733-.54-2.113 0-2.5 1.811-4.418 1.81-1.918 5.259-2.715Q39.73 5.3 45.657 5.3q-1.595 3.147-3.556 11.12 5.69 0 8.965-.409 1.875-6.25 3.297-8.706 1.423-2.479 3.19-3.578Q59.342 2.63 61.54 2.63q1.896 0 2.91.733 1.034.711 1.034 1.638 0 .538-.367.883-.366.345-.948.345-.754 0-1.702-1.077-.97-1.078-1.725-1.078-1.616 0-3.19 2.996-2.8 5.344-6.486 22.563.366.043 1.035.151 1.228.216 1.982.216.884 0 2.004-.216zm15.302-4.439l.71.948q-5.28 5.021-9.05 5.021-1.53 0-2.35-1.034-.797-1.035-.797-3.319 0-4.612 2.802-9.18 3.146-5.194 7.52-5.194 1.531 0 2.328.775.82.755.82 2.09 0 1.402-.97 2.76-.97 1.357-3.47 2.823-1.25.71-5.345 2.564-.194 1.164-.194 2.22 0 1.53.474 2.133.496.604 1.423.604.883 0 1.94-.496 1.422-.668 4.159-2.715zm-7.543-3.125q3.47-1.552 5.215-3.34 1.185-1.25 1.185-2.479 0-.927-.495-1.465-.474-.56-1.25-.56-.798 0-1.552.603-1.013.797-1.702 2.413-.992 2.371-1.401 4.828zm23.081 3.857l.452 1.25q-5.129 4.03-8.663 4.03-1.875 0-2.737-1.336-.84-1.336-.84-3.383 0-3.405 1.81-7.004 1.81-3.6 4.396-5.517 2.026-1.487 4.569-1.487 1.595 0 2.414.603.819.604.819 1.466 0 .668-.431 1.099-.431.41-1.207.41-.755 0-1.94-.69-1.228-.733-2.047-.733-1.056 0-2.112.97-1.035.948-1.983 3.706-.947 2.76-.947 5.54 0 2.047.797 3.168.582.862 1.638.862 2.522 0 6.013-2.953zm20.473.108l.56.798q-1.982 2.198-4.073 3.49-1.422.884-2.349.884-.754 0-1.228-.603-.453-.603-.453-1.875 0-.862.345-2.5.367-1.66 2.026-7.09.733-2.672.733-3.125 0-.733-.733-.733-.905 0-2.263.905-1.896 1.25-3.362 3.19-.927 1.25-1.487 3.707l-1.724 7.5h-3.211q1.034-3.772 1.595-6.164l3.168-13.836q.862-3.814 2.263-5.862 1.422-2.069 3.685-3.297 2.284-1.228 4.504-1.228.927 0 1.465.452.54.453.54 1.142 0 .582-.54 1.035-.517.43-1.422.43-.517 0-1.336-.107-1.853-.258-2.565-.258-.991 0-1.616.797-.625.797-1.293 3.75l-2.414 10.646q2.565-2.694 5.582-4.547 1.767-1.1 2.845-1.1.84 0 1.314.518.474.495.474 1.4 0 .733-.172 1.466-.28 1.272-1.315 4.612-1.4 4.612-1.659 5.733-.237 1.12-.237 2.004 0 .345.108.517.129.172.366.172.517 0 1.94-1.228.797-.668 1.94-1.595zm12.78-13.555q2.112 0 3.513 1.68 1.4 1.682 1.4 4.677 0 4.785-3.361 8.599-3.362 3.793-7.112 3.793-2.306 0-3.729-1.509-1.4-1.508-1.4-4.116 0-4.525 2.586-8.362 3.254-4.762 8.103-4.762zm-1.832 1.616q-1.832 0-3.556 2.63-1.702 2.607-1.702 7.219 0 2.801 1.056 4.418.775 1.185 2.069 1.185 1.81 0 3.297-2.241 1.896-2.91 1.896-7.22 0-3.232-.883-4.612-.862-1.379-2.177-1.379zm29.848 11.099l.711.948q-5.28 5.021-9.051 5.021-1.53 0-2.35-1.034-.797-1.035-.797-3.319 0-4.612 2.802-9.18 3.146-5.194 7.521-5.194 1.53 0 2.328.775.819.755.819 2.09 0 1.402-.97 2.76-.97 1.357-3.47 2.823-1.25.71-5.344 2.564-.194 1.164-.194 2.22 0 1.53.474 2.133.495.604 1.422.604.884 0 1.94-.496 1.422-.668 4.16-2.715zm-7.543-3.125q3.47-1.552 5.216-3.34 1.185-1.25 1.185-2.479 0-.927-.496-1.465-.474-.56-1.25-.56-.797 0-1.551.603-1.013.797-1.703 2.413-.991 2.371-1.4 4.828zm11.897-4.547l-.733-.755q2.758-2.629 4.396-3.49 1.638-.863 2.802-.863.452 0 .71.194.26.194.26.453 0 .194-.108.69l-.97 4.33q2.198-2.434 5.517-4.546 1.767-1.1 2.91-1.1.84 0 1.314.54.474.538.474 1.551 0 .668-.194 1.509-.345 1.4-1.81 6.099-1.38 4.396-1.38 5.84 0 .43.13.646.13.216.366.216.625 0 1.961-1.207.949-.862 1.897-1.595l.539.776q-1.983 2.198-4.117 3.534-1.357.862-2.24.862-.82 0-1.272-.603-.453-.582-.453-1.918 0-1.918 2.392-9.547.733-2.715.733-3.168 0-.668-.797-.668-.863 0-2.22.905-2.026 1.336-3.384 3.146-.862 1.164-1.444 3.707l-1.745 7.521h-3.211q.905-3.232 1.573-6.185l1.918-8.189q.108-.496.108-.711 0-.582-.431-.582-.345 0-.992.453-1.336.883-2.5 2.155zm39.2-7.543l.26-.97q3.124-.302 5.344-.862-.539 1.509-1.164 3.944l-1.595 6.056 1.983.129q1.38.065 2.995-.69 1.638-.754 2.91-2.65 1.293-1.897 1.293-4.095 0-2.177-1.573-3.448-1.552-1.272-4.763-1.272-3.664 0-7.177 1.832-3.512 1.81-5.43 4.655-1.897 2.823-1.897 5.582 0 1.357.496 2.37.496.992 1.767 1.961 1.056.776 1.056 1.509 0 .474-.345.797-.345.324-.819.324-1.271 0-2.457-1.746-1.185-1.746-1.185-4.418 0-4.892 3.75-8.922 4.914-5.302 13.19-5.302 3.146 0 5.15.82 2.026.818 3.017 2.24 1.013 1.423 1.013 3.082 0 2.112-1.422 4.16-1.401 2.026-4.16 3.276-2.737 1.25-6.099 1.25-.517 0-1.616-.065l-1.703 6.702q-.43 1.703-.97 3.362 1.682.41 2.932.41 1.573 0 3.383-.604l-.259 1.207q-1.68.453-2.844.453-1.12 0-3.276-.238-1.724-.215-2.802-.215-2.09 0-4.288.496l.258-1.143q2.242-.366 3.06-1.056 1.164-.97 1.897-3.9l3.254-12.91q.216-.904.216-1.27 0-.346-.28-.604-.28-.28-.668-.28-.151 0-.431.043zm28.814 2.133l1.422-.301-1.616 5.452q-.97 3.254-1.832 7.5-.474 2.306-.474 2.974 0 .668.539.668.345 0 1.1-.453 1.335-.797 2.564-1.982l.69.84q-2.458 2.241-3.147 2.715-1.38.949-2.63 1.401-.818.302-1.594.302-.56 0-.84-.259-.28-.258-.28-.754 0-.323.172-.883l.862-2.931q-1.854 2.22-4.418 3.814-1.574.991-2.888.991-1.25 0-1.918-.883-.905-1.185-.905-3.103 0-2.285 1.207-5.086 1.228-2.802 3.275-5.087 2.048-2.284 4.31-3.361 1.746-.82 4.483-.82.69 0 1.4.087l.518-.84zm-2.672 3.298q-1.164-.237-1.961-.237-1.94 0-3.384 1.077-1.444 1.056-2.694 3.836-1.228 2.759-1.228 5.517 0 1.466.496 2.112.495.647 1.293.647 1.487 0 3.19-1.595 1.702-1.616 2.5-4.633l1.788-6.724zm10.495 15.193h-3.211l1.509-5.797q1.099-4.267 1.918-8.103.194-.949.194-1.186 0-.517-.475-.517-.323 0-.99.453-.669.43-2.415 2.176l-.668-.754q2.07-2.22 4.117-3.319 2.068-1.12 3.168-1.12.387 0 .603.194.237.172.237.452t-.28 1.487l-.927 3.858q2.177-3.427 4.914-5.862 1.314-1.164 2.198-1.164.646 0 1.078.431.43.41.43.97 0 .582-.43.991-.41.41-2.09.97-1.596.539-2.609 1.293-.99.754-2.198 2.306-1.185 1.552-1.66 2.716-.473 1.142-1.443 5.344l-.97 4.181zm23.986-18.491l1.423-.301-1.617 5.452q-.97 3.254-1.832 7.5-.474 2.306-.474 2.974 0 .668.54.668.344 0 1.098-.453 1.336-.797 2.565-1.982l.69.84q-2.457 2.241-3.147 2.715-1.38.949-2.63 1.401-.818.302-1.594.302-.56 0-.84-.259-.28-.258-.28-.754 0-.323.172-.883l.862-2.931q-1.854 2.22-4.418 3.814-1.573.991-2.888.991-1.25 0-1.918-.883-.905-1.185-.905-3.103 0-2.285 1.207-5.086 1.228-2.802 3.275-5.087 2.048-2.284 4.31-3.361 1.746-.82 4.483-.82.69 0 1.401.087l.517-.84zm-2.672 3.298q-1.164-.237-1.961-.237-1.94 0-3.384 1.077-1.444 1.056-2.694 3.836-1.228 2.759-1.228 5.517 0 1.466.496 2.112.495.647 1.293.647 1.487 0 3.19-1.595 1.702-1.616 2.5-4.633l1.788-6.724zm21.012-3.082l1.746-.388q-1.573 5.043-2.888 10.107-.948 3.62-1.315 6.035-.194 1.206-.215 3.06-.043 3.103-.69 5-.905 2.65-3.383 4.267-2.457 1.616-5.84 1.616-2.91 0-4.591-1.38-1.66-1.357-1.66-3.124 0-1.746 1.337-3.254.991-1.143 4.138-2.759 1.594-.84 2.995-1.724-1.595.819-2.478.819-.798 0-1.423-.733-.603-.754-.603-1.982 0-3.966 2.349-7.866 2.37-3.923 5.69-5.884 2.047-1.207 5.129-1.207.603 0 1.487.043l.215-.646zm-2.414 3.19q-1.034-.195-1.831-.195-2.048 0-3.513 1.078-1.466 1.078-2.5 3.62-1.444 3.6-1.444 6.056 0 1.013.56 1.703.582.69 1.293.69.862 0 2.134-.82 1.271-.84 2.069-2.09.819-1.25 1.66-4.31l1.572-5.733zm-2.93 11.745q-1.466 1.314-5.647 4.202-3.685 2.5-4.526 3.6-.84 1.12-.84 2.37 0 1.228 1.078 2.198 1.099.991 2.65.991 1.466 0 2.845-.733 1.38-.71 2.392-2.09 1.035-1.358 1.423-3.082.387-1.724.409-4.569.021-.625.215-2.887zM288.45 13.21h3.06l-2.026 7.522q-1.789 6.551-1.789 7.456 0 .41.194.625.194.216.431.216.367 0 .862-.323.711-.496 2.694-2.5l.711.797q-4.331 4.504-6.379 4.504-.69 0-1.185-.538-.474-.518-.474-1.487 0-1.121.474-2.996-1.918 2.198-4.741 3.858-1.875 1.099-3.254 1.099-.755 0-1.186-.496-.43-.496-.43-1.573 0-.84.193-1.81.28-1.358 1.423-5.453 1.443-5.194 1.443-6.228 0-.604-.43-.604-.388 0-1.057.41-.668.388-2.284 1.918l-.948-.754q2.888-2.586 4.396-3.384 1.53-.819 2.457-.819.517 0 .84.388.324.367.324 1.164 0 1.487-1.552 7.306-1.38 5.237-1.38 5.97 0 .452.281.775.302.323.646.323 1.207 0 3.427-1.982 2.22-2.005 2.91-4.548l2.349-8.835zm20.473-.948l1.422-.301-1.616 5.452q-.97 3.254-1.832 7.5-.474 2.306-.474 2.974 0 .668.539.668.345 0 1.099-.453 1.336-.797 2.564-1.982l.69.84q-2.457 2.241-3.146 2.715-1.38.949-2.63 1.401-.819.302-1.594.302-.56 0-.84-.259-.281-.258-.281-.754 0-.323.172-.883l.862-2.931q-1.853 2.22-4.417 3.814-1.574.991-2.888.991-1.25 0-1.918-.883-.905-1.185-.905-3.103 0-2.285 1.206-5.086 1.229-2.802 3.276-5.087 2.047-2.284 4.31-3.361 1.746-.82 4.483-.82.69 0 1.4.087l.518-.84zm-2.672 3.298q-1.164-.237-1.962-.237-1.94 0-3.383 1.077-1.444 1.056-2.694 3.836-1.228 2.759-1.228 5.517 0 1.466.495 2.112.496.647 1.293.647 1.487 0 3.19-1.595 1.702-1.616 2.5-4.633l1.789-6.724zm7.154 2.112l-.732-.755q2.758-2.629 4.396-3.49 1.638-.863 2.802-.863.452 0 .71.194.26.194.26.453 0 .194-.108.69l-.97 4.33q2.198-2.434 5.517-4.546 1.767-1.1 2.91-1.1.84 0 1.314.54.474.538.474 1.551 0 .668-.194 1.509-.345 1.4-1.81 6.099-1.38 4.396-1.38 5.84 0 .43.13.646.13.216.366.216.625 0 1.961-1.207.949-.862 1.897-1.595l.539.776q-1.983 2.198-4.117 3.534-1.357.862-2.24.862-.82 0-1.272-.603-.453-.582-.453-1.918 0-1.918 2.392-9.547.733-2.715.733-3.168 0-.668-.797-.668-.862 0-2.22.905-2.026 1.336-3.384 3.146-.862 1.164-1.444 3.707l-1.745 7.521h-3.211q.905-3.232 1.573-6.185l1.918-8.189q.108-.496.108-.711 0-.582-.431-.582-.345 0-.992.453-1.336.883-2.5 2.155zm34.395-5.41l1.423-.301-1.616 5.452q-.97 3.254-1.832 7.5-.474 2.306-.474 2.974 0 .668.539.668.344 0 1.099-.453 1.336-.797 2.564-1.982l.69.84q-2.457 2.241-3.147 2.715-1.379.949-2.629 1.401-.819.302-1.594.302-.56 0-.841-.259-.28-.258-.28-.754 0-.323.172-.883l.862-2.931q-1.853 2.22-4.418 3.814-1.573.991-2.887.991-1.25 0-1.918-.883-.906-1.185-.906-3.103 0-2.285 1.207-5.086 1.229-2.802 3.276-5.087 2.047-2.284 4.31-3.361 1.746-.82 4.483-.82.69 0 1.4.087l.518-.84zm-2.672 3.298q-1.163-.237-1.96-.237-1.94 0-3.384 1.077-1.444 1.056-2.694 3.836-1.228 2.759-1.228 5.517 0 1.466.495 2.112.496.647 1.293.647 1.487 0 3.19-1.595 1.702-1.616 2.5-4.633l1.788-6.724zm1.358-11.81h4.095L343.275 10h-1.271l4.482-6.25zm15.215 14.223l-.84-.862q1.96-2.349 3.9-3.47 1.94-1.12 3.362-1.12.54 0 .84.28.324.259.324.776 0 .625-.15 1.293-.13.647-.863 3.103 3.297-3.297 4.504-4.073 2.026-1.314 3.707-1.314 1.1 0 1.853 1.034.755 1.034.755 3.125 0 5.215-3.254 9.913-3.255 4.698-7.198 4.698-1.552 0-3.104-.84l-1.832 7.112q-.172.646-.172 1.056 0 .797.603 1.142.927.539 3.901.884l-.28 1.077q-3.47-.28-5.452-.28-2.048 0-5.302.28l.28-1.077q1.638-.173 2.37-.906.755-.732 1.208-2.607l3.9-16.357q1.1-4.57 1.1-5.086 0-.56-.54-.56-.948 0-3.62 2.78zm4.353 10.172q1.703 1.703 3.492 1.703 2.586 0 4.525-4.03 1.961-4.03 1.961-7.866 0-1.229-.56-1.854-.539-.646-1.465-.646-1.035 0-2.328 1.013-2.004 1.573-3.06 3.125-.754 1.12-1.422 3.879l-1.143 4.676zm29.417-15.883l1.423-.301-1.617 5.452q-.97 3.254-1.831 7.5-.474 2.306-.474 2.974 0 .668.538.668.345 0 1.1-.453 1.336-.797 2.564-1.982l.69.84q-2.457 2.241-3.147 2.715-1.38.949-2.63 1.401-.818.302-1.594.302-.56 0-.84-.259-.28-.258-.28-.754 0-.323.172-.883l.862-2.931q-1.853 2.22-4.418 3.814-1.573.991-2.888.991-1.25 0-1.918-.883-.905-1.185-.905-3.103 0-2.285 1.207-5.086 1.228-2.802 3.276-5.087 2.047-2.284 4.31-3.361 1.745-.82 4.482-.82.69 0 1.401.087l.517-.84zM392.8 15.56q-1.164-.237-1.961-.237-1.94 0-3.384 1.077-1.443 1.056-2.693 3.836-1.229 2.759-1.229 5.517 0 1.466.496 2.112.496.647 1.293.647 1.487 0 3.19-1.595 1.702-1.616 2.5-4.633l1.788-6.724zm10.494 15.193h-3.21l1.508-5.797q1.099-4.267 1.918-8.103.194-.949.194-1.186 0-.517-.474-.517-.324 0-.992.453-.668.43-2.413 2.176l-.668-.754q2.069-2.22 4.116-3.319 2.069-1.12 3.168-1.12.388 0 .603.194.237.172.237.452t-.28 1.487l-.927 3.858q2.177-3.427 4.914-5.862 1.315-1.164 2.198-1.164.647 0 1.078.431.43.41.43.97 0 .582-.43.991-.41.41-2.09.97-1.595.539-2.608 1.293-.992.754-2.198 2.306-1.186 1.552-1.66 2.716-.474 1.142-1.444 5.344l-.97 4.181zm23.986-18.491l1.423-.301-1.616 5.452q-.97 3.254-1.832 7.5-.474 2.306-.474 2.974 0 .668.538.668.345 0 1.1-.453 1.336-.797 2.564-1.982l.69.84q-2.457 2.241-3.147 2.715-1.379.949-2.629 1.401-.819.302-1.595.302-.56 0-.84-.259-.28-.258-.28-.754 0-.323.172-.883l.862-2.931q-1.853 2.22-4.418 3.814-1.573.991-2.888.991-1.25 0-1.918-.883-.905-1.185-.905-3.103 0-2.285 1.207-5.086 1.228-2.802 3.276-5.087 2.047-2.284 4.31-3.361 1.746-.82 4.483-.82.69 0 1.4.087l.518-.84zm-2.672 3.298q-1.163-.237-1.96-.237-1.94 0-3.384 1.077-1.444 1.056-2.694 3.836-1.229 2.759-1.229 5.517 0 1.466.496 2.112.496.647 1.293.647 1.487 0 3.19-1.595 1.702-1.616 2.5-4.633l1.788-6.724zm22.284-6.25l3.427-1.315-1.552 6.035h4.46l-.344 1.53h-4.46l-1.897 7.22q-.884 3.253-.884 4.525 0 .582.237.84.259.259.69.259.668 0 2.047-.797 1.81-1.056 3.448-2.393l.82.992q-4.72 3.556-6.315 4.353-1.595.797-2.565.797-.797 0-1.271-.581-.453-.582-.453-1.897 0-1.552.819-4.741l2.22-8.577h-3.492l.388-1.53h3.47l1.207-4.72zm18.792 3.319q2.112 0 3.513 1.68 1.401 1.682 1.401 4.677 0 4.785-3.362 8.599-3.362 3.793-7.112 3.793-2.306 0-3.728-1.509-1.4-1.508-1.4-4.116 0-4.525 2.585-8.362 3.254-4.762 8.103-4.762zm-1.831 1.616q-1.832 0-3.556 2.63-1.703 2.607-1.703 7.219 0 2.801 1.056 4.418.776 1.185 2.069 1.185 1.81 0 3.297-2.241 1.897-2.91 1.897-7.22 0-3.232-.884-4.612-.862-1.379-2.176-1.379zm25.408 12.047l.603.819q-2.887 2.435-4.288 3.233-1.94 1.099-3.06 1.099-.518 0-.84-.302-.324-.28-.324-.647 0-.366.237-1.206l.754-2.63q-2.586 2.78-4.31 3.772-1.724.991-3.103.991-1.142 0-1.918-.991-.776-1.013-.776-2.953 0-3.06 2.09-7.025 2.112-3.987 4.677-5.884 2.586-1.918 4.72-1.918.474 0 1.422.151 1.013-4.202 1.94-6.12.926-1.94 2.392-3.34 1.465-1.402 3.34-2.156 1.896-.776 3.534-.776.862 0 1.38.453.517.452.517 1.142 0 .668-.474 1.1-.474.409-1.293.409-.54 0-2.005-.216-1.465-.215-2.004-.215-.754 0-1.336.474-.56.452-1.078 1.982-.344.97-1.573 6.186l-3.06 13.016q-.539 2.306-.539 3.06 0 .82.625.82.388 0 .905-.28.733-.41 2.845-2.048zm-4.569-11.12q-1.724-.388-2.435-.388-1.444 0-2.823 1.142-1.38 1.12-2.672 4.375-1.272 3.254-1.272 5.668 0 1.099.582 1.81.603.69 1.358.69.905 0 2.069-.798 1.659-1.185 2.629-2.888.582-1.077 1.573-5.28l.991-4.331zm22.068-2.91l1.423-.301-1.617 5.452q-.97 3.254-1.831 7.5-.475 2.306-.475 2.974 0 .668.54.668.344 0 1.098-.453 1.337-.797 2.565-1.982l.69.84q-2.457 2.241-3.147 2.715-1.38.949-2.63 1.401-.818.302-1.594.302-.56 0-.84-.259-.28-.258-.28-.754 0-.323.172-.883l.862-2.931q-1.853 2.22-4.418 3.814-1.573.991-2.888.991-1.25 0-1.918-.883-.905-1.185-.905-3.103 0-2.285 1.207-5.086 1.228-2.802 3.276-5.087 2.047-2.284 4.31-3.361 1.745-.82 4.482-.82.69 0 1.401.087l.517-.84zm-2.672 3.298q-1.164-.237-1.961-.237-1.94 0-3.384 1.077-1.443 1.056-2.693 3.836-1.229 2.759-1.229 5.517 0 1.466.496 2.112.496.647 1.293.647 1.487 0 3.19-1.595 1.702-1.616 2.5-4.633l1.788-6.724zm26.357 16.077l-.776-10.431q-.237-3.19-.237-4.202 0-2.91.819-5.345.84-2.457 2.952-5.259-2.521 0-5.15 1.207-2.608 1.207-3.836 2.78-1.207 1.574-1.207 3.168 0 .733.452 1.552.582 1.034.582 1.573 0 .496-.301.798-.302.301-.776.301-.69 0-1.207-.71-.647-.95-.647-2.35 0-2.63 1.983-5.064 1.983-2.436 5.43-3.6 2.22-.754 6.466-1.034 1.142-.086 2.328-.215-2.91 4.267-3.793 7.133-.884 2.845-.884 7.737 0 3.75.388 6.853l4.138-4.418 3.534-3.62q5.345-5.496 7.198-8.664 1.401-2.392 1.401-4.353 0-1.078-.496-2.37-.323-.82-.323-1.25 0-.583.431-1.014.453-.43 1.056-.43.819 0 1.38.84.56.84.56 2.629 0 1.746-.733 3.707-.733 1.94-3.082 4.956-2.349 3.018-7.263 7.996-5.15 5.215-10.387 11.099zm29.46-6.293l.711.948q-5.28 5.021-9.051 5.021-1.53 0-2.35-1.034-.797-1.035-.797-3.319 0-4.612 2.802-9.18 3.146-5.194 7.521-5.194 1.53 0 2.328.775.819.755.819 2.09 0 1.402-.97 2.76-.97 1.357-3.47 2.823-1.25.71-5.344 2.564-.194 1.164-.194 2.22 0 1.53.474 2.133.495.604 1.422.604.884 0 1.94-.496 1.422-.668 4.159-2.715zm-7.543-3.125q3.47-1.552 5.216-3.34 1.185-1.25 1.185-2.479 0-.927-.496-1.465-.474-.56-1.25-.56-.797 0-1.551.603-1.013.797-1.703 2.413-.991 2.371-1.4 4.828zm11.896-4.547l-.732-.755q2.758-2.629 4.396-3.49 1.638-.863 2.802-.863.452 0 .71.194.26.194.26.453 0 .194-.108.69l-.97 4.33q2.198-2.434 5.517-4.546 1.767-1.1 2.91-1.1.84 0 1.314.54.474.538.474 1.551 0 .668-.194 1.509-.345 1.4-1.81 6.099-1.38 4.396-1.38 5.84 0 .43.13.646.13.216.366.216.625 0 1.961-1.207.949-.862 1.897-1.595l.539.776q-1.983 2.198-4.117 3.534-1.357.862-2.241.862-.819 0-1.271-.603-.453-.582-.453-1.918 0-1.918 2.392-9.547.733-2.715.733-3.168 0-.668-.798-.668-.862 0-2.22.905-2.025 1.336-3.383 3.146-.862 1.164-1.444 3.707l-1.745 7.521h-3.211q.905-3.232 1.573-6.185l1.918-8.189q.108-.496.108-.711 0-.582-.431-.582-.345 0-.992.453-1.336.883-2.5 2.155zm30.991 7.672l.71.948q-5.28 5.021-9.05 5.021-1.53 0-2.35-1.034-.797-1.035-.797-3.319 0-4.612 2.801-9.18 3.147-5.194 7.522-5.194 1.53 0 2.327.775.82.755.82 2.09 0 1.402-.97 2.76-.97 1.357-3.47 2.823-1.25.71-5.345 2.564-.194 1.164-.194 2.22 0 1.53.474 2.133.496.604 1.423.604.883 0 1.94-.496 1.422-.668 4.159-2.715zm-7.543-3.125q3.47-1.552 5.215-3.34 1.185-1.25 1.185-2.479 0-.927-.495-1.465-.474-.56-1.25-.56-.798 0-1.552.603-1.013.797-1.702 2.413-.992 2.371-1.401 4.828zm24.869-7.349q-1.96.539-3.599.539-.905 0-2.004-.108-1.53-.172-2.047-.172-.647 0-.991.301-.345.302-.345.776 0 .733.776.798.97.107.97.883 0 .366-.302.668-.302.28-.69.28-.776 0-1.444-.754-.646-.776-.646-1.918 0-1.465 1.228-2.521 1.228-1.056 3.039-1.056.948 0 2.564.258 2.608.41 3.75.41 1.164 0 2.177-.776.474-.345.776-.345.258 0 .43.172.195.151.195.302 0 .216-.238.474-.732.905-3.34 3.405l-6.68 6.4q-2.932 2.803-4.871 4.527 1.228-.13 1.918-.13.97 0 1.767.173.797.15 2.565.732 2.305.798 3.75.798.905 0 1.379-.41.495-.43.495-1.077 0-.367-.344-1.035-.302-.646-.302-.991 0-.517.345-.884.344-.366.862-.366.625 0 1.034.517.431.496.431 1.293 0 1.207-.883 2.543-.884 1.315-2.22 2.026-1.336.711-3.297.711-1.617 0-4.72-.926-2.586-.755-3.793-.755-.733 0-1.703.776-.56.474-.97.474-.797 0-.797-.388 0-.366.453-.883 1.207-1.423 6.12-5.884 3.32-3.017 5.819-5.495l3.383-3.362zm20.345-1.66h3.06l-2.026 7.522q-1.789 6.551-1.789 7.456 0 .41.194.625.194.216.431.216.367 0 .862-.323.711-.496 2.694-2.5l.711.797q-4.331 4.504-6.379 4.504-.69 0-1.185-.538-.474-.518-.474-1.487 0-1.121.474-2.996-1.918 2.198-4.741 3.858-1.875 1.099-3.254 1.099-.755 0-1.186-.496-.43-.496-.43-1.573 0-.84.193-1.81.28-1.358 1.423-5.453 1.443-5.194 1.443-6.228 0-.604-.43-.604-.388 0-1.057.41-.668.388-2.284 1.918l-.948-.754q2.888-2.586 4.396-3.384 1.53-.819 2.457-.819.517 0 .84.388.324.367.324 1.164 0 1.487-1.552 7.306-1.38 5.237-1.38 5.97 0 .452.281.775.302.323.646.323 1.207 0 3.427-1.982 2.22-2.005 2.91-4.548l2.349-8.835zm17.068 12.134l.711.948q-5.28 5.021-9.051 5.021-1.53 0-2.35-1.034-.797-1.035-.797-3.319 0-4.612 2.802-9.18 3.146-5.194 7.521-5.194 1.53 0 2.328.775.819.755.819 2.09 0 1.402-.97 2.76-.97 1.357-3.47 2.823-1.25.71-5.345 2.564-.193 1.164-.193 2.22 0 1.53.474 2.133.495.604 1.422.604.884 0 1.94-.496 1.422-.668 4.159-2.715zm-7.543-3.125q3.47-1.552 5.215-3.34 1.186-1.25 1.186-2.479 0-.927-.496-1.465-.474-.56-1.25-.56-.797 0-1.552.603-1.012.797-1.702 2.413-.991 2.371-1.4 4.828zm20.215 3.341l.733.775q-1.681 1.897-3.987 3.47-2.285 1.551-3.772 1.551-.668 0-1.099-.517-.43-.495-.43-1.379 0-1.724 1.335-7.155l2.328-9.46q1.271-5.13 2.133-6.876 1.336-2.65 3.772-4.116Q666.13.388 668.845.388q.927 0 1.444.452.539.431.539 1.056 0 .69-.518 1.143-.517.43-1.508.43-.647 0-1.832-.215-1.034-.172-1.918-.172-.884 0-1.336.366-.625.517-1.142 2.177-.496 1.66-1.638 6.551l-2.134 9.03q-1.595 6.789-1.595 7.09 0 .69.496.69.474 0 1.38-.56 1.788-1.121 3.577-2.867zm16.335-13.298l1.423-.301-1.617 5.452q-.97 3.254-1.831 7.5-.474 2.306-.474 2.974 0 .668.538.668.345 0 1.1-.453 1.336-.797 2.564-1.982l.69.84q-2.457 2.241-3.147 2.715-1.38.949-2.63 1.401-.818.302-1.594.302-.56 0-.84-.259-.28-.258-.28-.754 0-.323.172-.883l.862-2.931q-1.853 2.22-4.418 3.814-1.573.991-2.888.991-1.25 0-1.918-.883-.905-1.185-.905-3.103 0-2.285 1.207-5.086 1.228-2.802 3.276-5.087 2.047-2.284 4.31-3.361 1.745-.82 4.482-.82.69 0 1.401.087l.517-.84zm-2.672 3.298q-1.164-.237-1.961-.237-1.94 0-3.384 1.077-1.443 1.056-2.693 3.836-1.229 2.759-1.229 5.517 0 1.466.496 2.112.496.647 1.293.647 1.487 0 3.19-1.595 1.702-1.616 2.5-4.633l1.788-6.724z" style="-inkscape-font-specification:'Monotype Corsiva Italic'" font-weight="400" font-size="44.136" font-family="Monotype Corsiva" letter-spacing="0" word-spacing="0" fill="#3f409f" fill-opacity=".941" font-style="italic"/></g></svg>