<?xml version="1.0" encoding="UTF-8" standalone="no"?>
<!-- Created with Inkscape (http://www.inkscape.org/) -->

<svg
   xmlns:dc="http://purl.org/dc/elements/1.1/"
   xmlns:cc="http://creativecommons.org/ns#"
   xmlns:rdf="http://www.w3.org/1999/02/22-rdf-syntax-ns#"
   xmlns:svg="http://www.w3.org/2000/svg"
   xmlns="http://www.w3.org/2000/svg"
   xmlns:sodipodi="http://sodipodi.sourceforge.net/DTD/sodipodi-0.dtd"
   xmlns:inkscape="http://www.inkscape.org/namespaces/inkscape"
   width="200mm"
   height="12mm"
   viewBox="0 0 708.66142 42.519685"
   id="svg2"
   version="1.1"
   inkscape:version="0.91 r13725"
   sodipodi:docname="somos.svg">
  <defs
     id="defs4" />
  <sodipodi:namedview
     id="base"
     pagecolor="#ffffff"
     bordercolor="#666666"
     borderopacity="1.0"
     inkscape:pageopacity="0.0"
     inkscape:pageshadow="2"
     inkscape:zoom="1.1926859"
     inkscape:cx="524.26345"
     inkscape:cy="-144.36692"
     inkscape:document-units="px"
     inkscape:current-layer="layer1"
     showgrid="false"
     fit-margin-top="0"
     fit-margin-left="0"
     fit-margin-right="0"
     fit-margin-bottom="0"
     inkscape:window-width="1920"
     inkscape:window-height="1018"
     inkscape:window-x="-8"
     inkscape:window-y="-8"
     inkscape:window-maximized="1" />
  <metadata
     id="metadata7">
    <rdf:RDF>
      <cc:Work
         rdf:about="">
        <dc:format>image/svg+xml</dc:format>
        <dc:type
           rdf:resource="http://purl.org/dc/dcmitype/StillImage" />
        <dc:title></dc:title>
      </cc:Work>
    </rdf:RDF>
  </metadata>
  <g
     inkscape:label="Capa 1"
     inkscape:groupmode="layer"
     id="layer1"
     transform="translate(-27.433959,-529.76131)">
    <g
       style="font-style:normal;font-weight:normal;font-size:44.13629913px;line-height:125%;font-family:sans-serif;letter-spacing:0px;word-spacing:0px;fill:#3f409f;fill-opacity:0.94117647;stroke:none;stroke-width:1px;stroke-linecap:butt;stroke-linejoin:miter;stroke-opacity:1"
       id="text4147"
       transform="translate(27.273838,-0.34467248)">
      <path
         d="m 56.247549,559.88922 -0.280162,1.2284 q -1.099098,0.12931 -1.680973,0.12931 -0.92669,0 -2.456806,-0.15086 -1.63787,-0.15086 -2.80162,-0.15086 -0.92669,0 -1.918033,0.30172 0.883588,-2.47836 2.004237,-6.8963 l 1.659421,-6.46528 -5.81875,0.21551 q -1.530116,0.0862 -3.146436,0.23706 -1.465463,5.7541 -3.01713,8.51262 -1.551666,2.75852 -3.555903,4.05157 -1.982685,1.31461 -3.814514,1.31461 -1.788727,0 -3.060231,-0.86204 -0.92669,-0.60343 -0.92669,-1.50856 0,-0.53878 0.366366,-0.90514 0.366365,-0.38792 0.883588,-0.38792 0.840486,0 1.724074,1.1853 0.538773,0.71118 0.862037,0.92669 0.344815,0.19396 0.754282,0.19396 1.680973,0 3.146436,-2.71542 1.487014,-2.71541 4.331736,-13.42623 l 2.111991,-7.88764 q -4.310186,0 -6.486829,1.42237 -2.155093,1.42236 -2.155093,3.21108 0,0.60343 0.581875,1.53012 0.517222,0.86204 0.517222,1.40081 0,0.62498 -0.409467,1.03444 -0.387917,0.38792 -0.991343,0.38792 -0.754282,0 -1.293056,-0.71118 -0.538773,-0.73273 -0.538773,-2.11199 0,-2.49991 1.810278,-4.41794 1.810278,-1.91803 5.258426,-2.71542 1.982686,-0.45257 7.909191,-0.45257 -1.594769,3.14644 -3.555903,11.12028 5.689445,0 8.965186,-0.40947 1.87493,-6.24976 3.297291,-8.70657 1.422362,-2.47836 3.189538,-3.57745 1.788727,-1.0991 3.986921,-1.0991 1.896482,0 2.909375,0.73273 1.034445,0.71118 1.034445,1.63787 0,0.53877 -0.366366,0.88359 -0.366366,0.34481 -0.948241,0.34481 -0.754282,0 -1.702523,-1.07754 -0.969792,-1.07755 -1.724074,-1.07755 -1.61632,0 -3.189537,2.99558 -2.801621,5.34463 -6.486829,22.56382 0.366365,0.0431 1.034444,0.15086 1.228403,0.21551 1.982685,0.21551 0.883588,0 2.004237,-0.21551 z"
         style="font-style:italic;font-variant:normal;font-weight:normal;font-stretch:normal;font-family:'Monotype Corsiva';-inkscape-font-specification:'Monotype Corsiva Italic';fill:#3f409f;fill-opacity:0.94117647"
         id="path4152"
         inkscape:connector-curvature="0" />
      <path
         d="m 71.548706,555.44973 0.711181,0.94824 q -5.279977,5.02136 -9.05139,5.02136 -1.530116,0 -2.349051,-1.03444 -0.797384,-1.03445 -0.797384,-3.31884 0,-4.6119 2.80162,-9.1807 3.146436,-5.19377 7.521274,-5.19377 1.530116,0 2.3275,0.77583 0.818935,0.75428 0.818935,2.09044 0,1.40081 -0.969791,2.75852 -0.969792,1.35771 -3.4697,2.82317 -1.249953,0.71118 -5.34463,2.56456 -0.193958,1.16375 -0.193958,2.21975 0,1.53011 0.47412,2.13354 0.495672,0.60342 1.422362,0.60342 0.883588,0 1.939583,-0.49567 1.422361,-0.66808 4.159329,-2.71541 z m -7.542824,-3.12489 q 3.469699,-1.55167 5.215324,-3.34039 1.185301,-1.24996 1.185301,-2.47836 0,-0.92669 -0.495671,-1.46546 -0.474121,-0.56033 -1.249954,-0.56033 -0.797384,0 -1.551667,0.60343 -1.012894,0.79738 -1.702523,2.4137 -0.991343,2.37061 -1.40081,4.82741 z"
         style="font-style:italic;font-variant:normal;font-weight:normal;font-stretch:normal;font-family:'Monotype Corsiva';-inkscape-font-specification:'Monotype Corsiva Italic';fill:#3f409f;fill-opacity:0.94117647"
         id="path4154"
         inkscape:connector-curvature="0" />
      <path
         d="m 87.086926,556.18246 0.45257,1.24995 q -5.129121,4.03002 -8.663473,4.03002 -1.874931,0 -2.736968,-1.33615 -0.840486,-1.33616 -0.840486,-3.3835 0,-3.40504 1.810278,-7.00405 1.810278,-3.599 4.396389,-5.51704 2.025787,-1.48701 4.568797,-1.48701 1.594768,0 2.413703,0.60342 0.818936,0.60343 0.818936,1.46547 0,0.66808 -0.431019,1.0991 -0.431018,0.40946 -1.206852,0.40946 -0.754282,0 -1.939583,-0.68963 -1.228403,-0.73273 -2.047338,-0.73273 -1.055996,0 -2.111991,0.96979 -1.034445,0.94824 -1.982686,3.70676 -0.94824,2.75852 -0.94824,5.53859 0,2.04734 0.797384,3.16799 0.581875,0.86203 1.63787,0.86203 2.521459,0 6.012709,-2.95247 z"
         style="font-style:italic;font-variant:normal;font-weight:normal;font-stretch:normal;font-family:'Monotype Corsiva';-inkscape-font-specification:'Monotype Corsiva Italic';fill:#3f409f;fill-opacity:0.94117647"
         id="path4156"
         inkscape:connector-curvature="0" />
      <path
         d="m 107.5603,556.29021 0.56033,0.79739 q -1.98269,2.19819 -4.07313,3.49125 -1.42236,0.88358 -2.34905,0.88358 -0.75428,0 -1.2284,-0.60342 -0.45257,-0.60343 -0.45257,-1.87493 0,-0.86204 0.34482,-2.49991 0.36636,-1.65942 2.02578,-7.09025 0.73273,-2.67232 0.73273,-3.12489 0,-0.73273 -0.73273,-0.73273 -0.90514,0 -2.26285,0.90514 -1.896477,1.24995 -3.36194,3.18954 -0.92669,1.24995 -1.487014,3.70676 l -1.724074,7.49972 -3.211088,0 q 1.034444,-3.77141 1.594768,-6.16357 l 3.167987,-13.83569 q 0.862037,-3.81452 2.262847,-5.86185 1.422361,-2.06889 3.685204,-3.2973 2.2844,-1.2284 4.50415,-1.2284 0.92669,0 1.46546,0.45257 0.53877,0.45257 0.53877,1.1422 0,0.58187 -0.53877,1.03444 -0.51722,0.43102 -1.42236,0.43102 -0.51722,0 -1.33616,-0.10775 -1.85338,-0.25861 -2.56456,-0.25861 -0.99134,0 -1.61632,0.79738 -0.624974,0.79738 -1.293053,3.74986 l -2.413704,10.64616 q 2.564561,-2.69387 5.581687,-4.54725 1.76718,-1.09909 2.84473,-1.09909 0.84048,0 1.3146,0.51722 0.47412,0.49567 0.47412,1.40081 0,0.73273 -0.1724,1.46546 -0.28017,1.27151 -1.31461,4.6119 -1.40081,4.6119 -1.65942,5.73255 -0.23706,1.12065 -0.23706,2.00423 0,0.34482 0.10775,0.51723 0.12931,0.1724 0.36637,0.1724 0.51722,0 1.93958,-1.2284 0.79739,-0.66808 1.93958,-1.59477 z"
         style="font-style:italic;font-variant:normal;font-weight:normal;font-stretch:normal;font-family:'Monotype Corsiva';-inkscape-font-specification:'Monotype Corsiva Italic';fill:#3f409f;fill-opacity:0.94117647"
         id="path4158"
         inkscape:connector-curvature="0" />
      <path
         d="m 120.34001,542.73468 q 2.11199,0 3.5128,1.68097 1.40081,1.68097 1.40081,4.67655 0,4.78431 -3.36195,8.59882 -3.36194,3.79297 -7.1118,3.79297 -2.30595,0 -3.72831,-1.50857 -1.40081,-1.50856 -1.40081,-4.11623 0,-4.52569 2.58611,-8.36176 3.25419,-4.76275 8.10315,-4.76275 z m -1.83183,1.61632 q -1.83183,0 -3.55591,2.62921 -1.70252,2.60766 -1.70252,7.21956 0,2.80162 1.056,4.41794 0.77583,1.1853 2.06889,1.1853 1.81027,0 3.29729,-2.24129 1.89648,-2.90938 1.89648,-7.21956 0,-3.23264 -0.88359,-4.6119 -0.86204,-1.37926 -2.17664,-1.37926 z"
         style="font-style:italic;font-variant:normal;font-weight:normal;font-stretch:normal;font-family:'Monotype Corsiva';-inkscape-font-specification:'Monotype Corsiva Italic';fill:#3f409f;fill-opacity:0.94117647"
         id="path4160"
         inkscape:connector-curvature="0" />
      <path
         d="m 148.35621,555.44973 0.71118,0.94824 q -5.27997,5.02136 -9.05139,5.02136 -1.53011,0 -2.34905,-1.03444 -0.79738,-1.03445 -0.79738,-3.31884 0,-4.6119 2.80162,-9.1807 3.14643,-5.19377 7.52127,-5.19377 1.53012,0 2.3275,0.77583 0.81894,0.75428 0.81894,2.09044 0,1.40081 -0.96979,2.75852 -0.9698,1.35771 -3.4697,2.82317 -1.24996,0.71118 -5.34463,2.56456 -0.19396,1.16375 -0.19396,2.21975 0,1.53011 0.47412,2.13354 0.49567,0.60342 1.42236,0.60342 0.88359,0 1.93958,-0.49567 1.42236,-0.66808 4.15933,-2.71541 z m -7.54282,-3.12489 q 3.4697,-1.55167 5.21532,-3.34039 1.1853,-1.24996 1.1853,-2.47836 0,-0.92669 -0.49567,-1.46546 -0.47412,-0.56033 -1.24995,-0.56033 -0.79739,0 -1.55167,0.60343 -1.01289,0.79738 -1.70252,2.4137 -0.99134,2.37061 -1.40081,4.82741 z"
         style="font-style:italic;font-variant:normal;font-weight:normal;font-stretch:normal;font-family:'Monotype Corsiva';-inkscape-font-specification:'Monotype Corsiva Italic';fill:#3f409f;fill-opacity:0.94117647"
         id="path4162"
         inkscape:connector-curvature="0" />
      <path
         d="m 152.7095,547.7776 -0.73273,-0.75429 q 2.75851,-2.62921 4.39639,-3.49125 1.63787,-0.86203 2.80162,-0.86203 0.45257,0 0.71118,0.19395 0.25861,0.19396 0.25861,0.45257 0,0.19396 -0.10776,0.68963 l -0.96979,4.33174 q 2.1982,-2.43525 5.51704,-4.54725 1.76717,-1.09909 2.90937,-1.09909 0.84049,0 1.31461,0.53877 0.47412,0.53877 0.47412,1.55167 0,0.66808 -0.19396,1.50856 -0.34481,1.40081 -1.81028,6.09891 -1.37925,4.39639 -1.37925,5.84031 0,0.43101 0.1293,0.64652 0.12931,0.21551 0.36637,0.21551 0.62497,0 1.96113,-1.20685 0.94824,-0.86204 1.89648,-1.59477 l 0.53878,0.77584 q -1.98269,2.19819 -4.11623,3.53435 -1.35771,0.86203 -2.2413,0.86203 -0.81893,0 -1.2715,-0.60342 -0.45257,-0.58188 -0.45257,-1.91803 0,-1.91804 2.39215,-9.54706 0.73273,-2.71542 0.73273,-3.16799 0,-0.66808 -0.79738,-0.66808 -0.86204,0 -2.21975,0.90514 -2.02578,1.33616 -3.38349,3.14643 -0.86204,1.16375 -1.44392,3.70676 l -1.74562,7.52128 -3.21109,0 q 0.90514,-3.23264 1.57322,-6.18512 l 1.91803,-8.18935 q 0.10776,-0.49567 0.10776,-0.71118 0,-0.58188 -0.43102,-0.58188 -0.34482,0 -0.99134,0.45257 -1.33616,0.88359 -2.49991,2.1551 z"
         style="font-style:italic;font-variant:normal;font-weight:normal;font-stretch:normal;font-family:'Monotype Corsiva';-inkscape-font-specification:'Monotype Corsiva Italic';fill:#3f409f;fill-opacity:0.94117647"
         id="path4164"
         inkscape:connector-curvature="0" />
      <path
         d="m 191.91063,540.23477 0.25861,-0.96979 q 3.12489,-0.30171 5.34463,-0.86204 -0.53877,1.50857 -1.16375,3.94382 l -1.59477,6.05581 1.98269,0.12931 q 1.37926,0.0647 2.99558,-0.68963 1.63787,-0.75428 2.90937,-2.65077 1.29306,-1.89648 1.29306,-4.09467 0,-2.17665 -1.57322,-3.44815 -1.55167,-1.2715 -4.76275,-1.2715 -3.66366,0 -7.17646,1.83182 -3.5128,1.81028 -5.43084,4.655 -1.89648,2.82318 -1.89648,5.58169 0,1.35771 0.49567,2.37061 0.49567,0.99134 1.76718,1.96113 1.05599,0.77583 1.05599,1.50857 0,0.47412 -0.34481,0.79738 -0.34482,0.32326 -0.81894,0.32326 -1.2715,0 -2.4568,-1.74562 -1.1853,-1.74563 -1.1853,-4.41794 0,-4.89206 3.74986,-8.92208 4.91361,-5.30153 13.18917,-5.30153 3.14643,0 5.15067,0.81893 2.02578,0.81894 3.01713,2.2413 1.01289,1.42236 1.01289,3.08178 0,2.11199 -1.42236,4.15933 -1.40081,2.02579 -4.15933,3.27574 -2.73697,1.24995 -6.09891,1.24995 -0.51722,0 -1.61632,-0.0647 l -1.70252,6.70234 q -0.43102,1.70252 -0.9698,3.36195 1.68098,0.40946 2.93093,0.40946 1.57322,0 3.3835,-0.60342 l -0.25862,1.20685 q -1.68097,0.45257 -2.84472,0.45257 -1.12065,0 -3.27574,-0.23706 -1.72407,-0.21551 -2.80162,-0.21551 -2.09044,0 -4.28863,0.49567 l 0.25861,-1.1422 q 2.24129,-0.36636 3.06023,-1.05599 1.16375,-0.9698 1.89648,-3.90072 l 3.25419,-12.90901 q 0.21551,-0.90514 0.21551,-1.2715 0,-0.34482 -0.28016,-0.60343 -0.28016,-0.28016 -0.66808,-0.28016 -0.15086,0 -0.43102,0.0431 z"
         style="font-style:italic;font-variant:normal;font-weight:normal;font-stretch:normal;font-family:'Monotype Corsiva';-inkscape-font-specification:'Monotype Corsiva Italic';fill:#3f409f;fill-opacity:0.94117647"
         id="path4166"
         inkscape:connector-curvature="0" />
      <path
         d="m 220.72423,542.36831 1.42236,-0.30171 -1.61632,5.45238 q -0.96979,3.25419 -1.83183,7.49973 -0.47412,2.30595 -0.47412,2.97403 0,0.66807 0.53877,0.66807 0.34482,0 1.0991,-0.45257 1.33616,-0.79738 2.56456,-1.98268 l 0.68963,0.84049 q -2.45681,2.24129 -3.14644,2.71541 -1.37926,0.94824 -2.62921,1.40081 -0.81893,0.30172 -1.59477,0.30172 -0.56032,0 -0.84048,-0.25862 -0.28017,-0.25861 -0.28017,-0.75428 0,-0.32326 0.17241,-0.88359 l 0.86204,-2.93092 q -1.85338,2.21974 -4.41794,3.81451 -1.57322,0.99134 -2.88783,0.99134 -1.24995,0 -1.91803,-0.88358 -0.90514,-1.1853 -0.90514,-3.10334 0,-2.2844 1.20685,-5.08602 1.22841,-2.80162 3.27575,-5.08601 2.04733,-2.2844 4.31018,-3.36195 1.74563,-0.81893 4.48259,-0.81893 0.68963,0 1.40081,0.0862 l 0.51723,-0.84049 z m -2.67232,3.2973 q -1.16375,-0.23707 -1.96113,-0.23707 -1.93959,0 -3.3835,1.07755 -1.44391,1.056 -2.69386,3.83607 -1.22841,2.75851 -1.22841,5.51703 0,1.46547 0.49567,2.11199 0.49568,0.64653 1.29306,0.64653 1.48701,0 3.18954,-1.59477 1.70252,-1.61632 2.4999,-4.63345 l 1.78873,-6.72388 z"
         style="font-style:italic;font-variant:normal;font-weight:normal;font-stretch:normal;font-family:'Monotype Corsiva';-inkscape-font-specification:'Monotype Corsiva Italic';fill:#3f409f;fill-opacity:0.94117647"
         id="path4168"
         inkscape:connector-curvature="0" />
      <path
         d="m 228.54721,560.85901 -3.21108,0 1.50856,-5.7972 q 1.0991,-4.26708 1.91803,-8.10315 0.19396,-0.94824 0.19396,-1.1853 0,-0.51722 -0.47412,-0.51722 -0.32326,0 -0.99134,0.45257 -0.66808,0.43102 -2.41371,2.17664 l -0.66807,-0.75428 q 2.06888,-2.21975 4.11622,-3.31884 2.06889,-1.12065 3.16799,-1.12065 0.38792,0 0.60342,0.19396 0.23706,0.1724 0.23706,0.45256 0,0.28017 -0.28016,1.48702 l -0.92669,3.85761 q 2.17665,-3.42659 4.91361,-5.86185 1.31461,-1.16375 2.1982,-1.16375 0.64653,0 1.07755,0.43102 0.43101,0.40947 0.43101,0.96979 0,0.58188 -0.43101,0.99135 -0.40947,0.40946 -2.09044,0.96979 -1.59477,0.53877 -2.60767,1.29305 -0.99134,0.75429 -2.19819,2.30595 -1.1853,1.55167 -1.65942,2.71542 -0.47412,1.1422 -1.44391,5.34463 l -0.9698,4.18088 z"
         style="font-style:italic;font-variant:normal;font-weight:normal;font-stretch:normal;font-family:'Monotype Corsiva';-inkscape-font-specification:'Monotype Corsiva Italic';fill:#3f409f;fill-opacity:0.94117647"
         id="path4170"
         inkscape:connector-curvature="0" />
      <path
         d="m 252.5334,542.36831 1.42236,-0.30171 -1.61632,5.45238 q -0.96979,3.25419 -1.83183,7.49973 -0.47412,2.30595 -0.47412,2.97403 0,0.66807 0.53878,0.66807 0.34481,0 1.09909,-0.45257 1.33616,-0.79738 2.56456,-1.98268 l 0.68963,0.84049 q -2.4568,2.24129 -3.14643,2.71541 -1.37926,0.94824 -2.62922,1.40081 -0.81893,0.30172 -1.59476,0.30172 -0.56033,0 -0.84049,-0.25862 -0.28016,-0.25861 -0.28016,-0.75428 0,-0.32326 0.1724,-0.88359 l 0.86204,-2.93092 q -1.85338,2.21974 -4.41794,3.81451 -1.57322,0.99134 -2.88782,0.99134 -1.24996,0 -1.91804,-0.88358 -0.90513,-1.1853 -0.90513,-3.10334 0,-2.2844 1.20685,-5.08602 1.2284,-2.80162 3.27574,-5.08601 2.04734,-2.2844 4.31018,-3.36195 1.74563,-0.81893 4.4826,-0.81893 0.68963,0 1.40081,0.0862 l 0.51722,-0.84049 z m -2.67232,3.2973 q -1.16375,-0.23707 -1.96113,-0.23707 -1.93958,0 -3.3835,1.07755 -1.44391,1.056 -2.69386,3.83607 -1.2284,2.75851 -1.2284,5.51703 0,1.46547 0.49567,2.11199 0.49567,0.64653 1.29305,0.64653 1.48702,0 3.18954,-1.59477 1.70252,-1.61632 2.49991,-4.63345 l 1.78872,-6.72388 z"
         style="font-style:italic;font-variant:normal;font-weight:normal;font-stretch:normal;font-family:'Monotype Corsiva';-inkscape-font-specification:'Monotype Corsiva Italic';fill:#3f409f;fill-opacity:0.94117647"
         id="path4172"
         inkscape:connector-curvature="0" />
      <path
         d="m 270.87324,542.58382 1.74562,-0.38791 q -1.57321,5.04291 -2.88782,10.10738 -0.94824,3.62056 -1.31461,6.03426 -0.19395,1.20685 -0.21551,3.06023 -0.0431,3.10334 -0.68963,4.99982 -0.90513,2.65076 -3.38349,4.26708 -2.45681,1.61632 -5.8403,1.61632 -2.90938,0 -4.59035,-1.37926 -1.65942,-1.35771 -1.65942,-3.12488 0,-1.74563 1.33616,-3.25419 0.99134,-1.1422 4.13777,-2.75852 1.59477,-0.84049 2.99558,-1.72408 -1.59477,0.81894 -2.47835,0.81894 -0.79739,0 -1.42236,-0.73273 -0.60343,-0.75429 -0.60343,-1.98269 0,-3.96537 2.34905,-7.86609 2.3706,-3.92227 5.68945,-5.8834 2.04733,-1.20685 5.12912,-1.20685 0.60342,0 1.48701,0.0431 l 0.21551,-0.64653 z m -2.4137,3.18954 q -1.03445,-0.19396 -1.83183,-0.19396 -2.04734,0 -3.5128,1.07755 -1.46547,1.07754 -2.49991,3.62055 -1.44391,3.59901 -1.44391,6.05581 0,1.0129 0.56032,1.70253 0.58188,0.68963 1.29306,0.68963 0.86203,0 2.13354,-0.81894 1.2715,-0.84048 2.06889,-2.09044 0.81893,-1.24995 1.65942,-4.31018 l 1.57322,-5.73255 z m -2.93093,11.74526 q -1.46546,1.3146 -5.64634,4.20243 -3.68521,2.4999 -4.5257,3.599 -0.84048,1.12065 -0.84048,2.3706 0,1.22841 1.07754,2.1982 1.0991,0.99134 2.65077,0.99134 1.46546,0 2.84472,-0.73273 1.37926,-0.71118 2.39215,-2.09044 1.03445,-1.35771 1.42236,-3.08178 0.38792,-1.72408 0.40947,-4.5688 0.0215,-0.62498 0.21551,-2.88782 z"
         style="font-style:italic;font-variant:normal;font-weight:normal;font-stretch:normal;font-family:'Monotype Corsiva';-inkscape-font-specification:'Monotype Corsiva Italic';fill:#3f409f;fill-opacity:0.94117647"
         id="path4174"
         inkscape:connector-curvature="0" />
      <path
         d="m 288.60965,543.31655 3.06023,0 -2.02579,7.52128 q -1.78873,6.55148 -1.78873,7.45662 0,0.40947 0.19396,0.62498 0.19396,0.2155 0.43102,0.2155 0.36637,0 0.86204,-0.32326 0.71118,-0.49567 2.69386,-2.49991 l 0.71118,0.79739 q -4.33173,4.50414 -6.37907,4.50414 -0.68963,0 -1.1853,-0.53877 -0.47412,-0.51722 -0.47412,-1.48702 0,-1.12064 0.47412,-2.99557 -1.91803,2.19819 -4.74121,3.85761 -1.87493,1.0991 -3.25419,1.0991 -0.75428,0 -1.1853,-0.49567 -0.43102,-0.49567 -0.43102,-1.57322 0,-0.84049 0.19396,-1.81028 0.28016,-1.35771 1.42236,-5.45238 1.44392,-5.19378 1.44392,-6.22822 0,-0.60343 -0.43102,-0.60343 -0.38792,0 -1.056,0.40947 -0.66808,0.38792 -2.2844,1.91803 l -0.94824,-0.75428 q 2.88783,-2.58611 4.39639,-3.38349 1.53012,-0.81894 2.45681,-0.81894 0.51722,0 0.84048,0.38792 0.32327,0.36636 0.32327,1.16375 0,1.48701 -1.55167,7.30576 -1.37926,5.23688 -1.37926,5.96961 0,0.45257 0.28016,0.77583 0.30172,0.32327 0.64653,0.32327 1.20685,0 3.4266,-1.98269 2.21974,-2.00424 2.90937,-4.54725 l 2.34906,-8.83588 z"
         style="font-style:italic;font-variant:normal;font-weight:normal;font-stretch:normal;font-family:'Monotype Corsiva';-inkscape-font-specification:'Monotype Corsiva Italic';fill:#3f409f;fill-opacity:0.94117647"
         id="path4176"
         inkscape:connector-curvature="0" />
      <path
         d="m 309.08304,542.36831 1.42236,-0.30171 -1.61632,5.45238 q -0.96979,3.25419 -1.83183,7.49973 -0.47412,2.30595 -0.47412,2.97403 0,0.66807 0.53877,0.66807 0.34482,0 1.0991,-0.45257 1.33616,-0.79738 2.56456,-1.98268 l 0.68963,0.84049 q -2.45681,2.24129 -3.14644,2.71541 -1.37926,0.94824 -2.62921,1.40081 -0.81893,0.30172 -1.59477,0.30172 -0.56032,0 -0.84048,-0.25862 -0.28017,-0.25861 -0.28017,-0.75428 0,-0.32326 0.17241,-0.88359 l 0.86204,-2.93092 q -1.85338,2.21974 -4.41794,3.81451 -1.57322,0.99134 -2.88783,0.99134 -1.24995,0 -1.91803,-0.88358 -0.90514,-1.1853 -0.90514,-3.10334 0,-2.2844 1.20685,-5.08602 1.22841,-2.80162 3.27575,-5.08601 2.04733,-2.2844 4.31018,-3.36195 1.74563,-0.81893 4.48259,-0.81893 0.68963,0 1.40081,0.0862 l 0.51723,-0.84049 z m -2.67232,3.2973 q -1.16375,-0.23707 -1.96113,-0.23707 -1.93959,0 -3.3835,1.07755 -1.44391,1.056 -2.69386,3.83607 -1.22841,2.75851 -1.22841,5.51703 0,1.46547 0.49567,2.11199 0.49568,0.64653 1.29306,0.64653 1.48701,0 3.18954,-1.59477 1.70252,-1.61632 2.4999,-4.63345 l 1.78873,-6.72388 z"
         style="font-style:italic;font-variant:normal;font-weight:normal;font-stretch:normal;font-family:'Monotype Corsiva';-inkscape-font-specification:'Monotype Corsiva Italic';fill:#3f409f;fill-opacity:0.94117647"
         id="path4178"
         inkscape:connector-curvature="0" />
      <path
         d="m 313.56561,547.7776 -0.73273,-0.75429 q 2.75852,-2.62921 4.39639,-3.49125 1.63787,-0.86203 2.80162,-0.86203 0.45257,0 0.71118,0.19395 0.25861,0.19396 0.25861,0.45257 0,0.19396 -0.10775,0.68963 l -0.96979,4.33174 q 2.19819,-2.43525 5.51704,-4.54725 1.76717,-1.09909 2.90937,-1.09909 0.84049,0 1.31461,0.53877 0.47412,0.53877 0.47412,1.55167 0,0.66808 -0.19396,1.50856 -0.34482,1.40081 -1.81028,6.09891 -1.37926,4.39639 -1.37926,5.84031 0,0.43101 0.12931,0.64652 0.1293,0.21551 0.36636,0.21551 0.62498,0 1.96114,-1.20685 0.94824,-0.86204 1.89648,-1.59477 l 0.53877,0.77584 q -1.98268,2.19819 -4.11622,3.53435 -1.35771,0.86203 -2.2413,0.86203 -0.81894,0 -1.27151,-0.60342 -0.45256,-0.58188 -0.45256,-1.91803 0,-1.91804 2.39215,-9.54706 0.73273,-2.71542 0.73273,-3.16799 0,-0.66808 -0.79738,-0.66808 -0.86204,0 -2.21975,0.90514 -2.02579,1.33616 -3.3835,3.14643 -0.86203,1.16375 -1.44391,3.70676 l -1.74562,7.52128 -3.21109,0 q 0.90514,-3.23264 1.57322,-6.18512 l 1.91803,-8.18935 q 0.10775,-0.49567 0.10775,-0.71118 0,-0.58188 -0.43101,-0.58188 -0.34482,0 -0.99135,0.45257 -1.33616,0.88359 -2.49991,2.1551 z"
         style="font-style:italic;font-variant:normal;font-weight:normal;font-stretch:normal;font-family:'Monotype Corsiva';-inkscape-font-specification:'Monotype Corsiva Italic';fill:#3f409f;fill-opacity:0.94117647"
         id="path4180"
         inkscape:connector-curvature="0" />
      <path
         d="m 347.96091,542.36831 1.42236,-0.30171 -1.61632,5.45238 q -0.96979,3.25419 -1.83183,7.49973 -0.47412,2.30595 -0.47412,2.97403 0,0.66807 0.53877,0.66807 0.34482,0 1.0991,-0.45257 1.33616,-0.79738 2.56456,-1.98268 l 0.68963,0.84049 q -2.45681,2.24129 -3.14644,2.71541 -1.37926,0.94824 -2.62921,1.40081 -0.81894,0.30172 -1.59477,0.30172 -0.56032,0 -0.84049,-0.25862 -0.28016,-0.25861 -0.28016,-0.75428 0,-0.32326 0.17241,-0.88359 l 0.86204,-2.93092 q -1.85338,2.21974 -4.41794,3.81451 -1.57322,0.99134 -2.88783,0.99134 -1.24995,0 -1.91803,-0.88358 -0.90514,-1.1853 -0.90514,-3.10334 0,-2.2844 1.20685,-5.08602 1.22841,-2.80162 3.27574,-5.08601 2.04734,-2.2844 4.31019,-3.36195 1.74562,-0.81893 4.48259,-0.81893 0.68963,0 1.40081,0.0862 l 0.51723,-0.84049 z m -2.67232,3.2973 q -1.16375,-0.23707 -1.96113,-0.23707 -1.93959,0 -3.3835,1.07755 -1.44391,1.056 -2.69387,3.83607 -1.2284,2.75851 -1.2284,5.51703 0,1.46547 0.49567,2.11199 0.49567,0.64653 1.29306,0.64653 1.48701,0 3.18954,-1.59477 1.70252,-1.61632 2.4999,-4.63345 l 1.78873,-6.72388 z m 1.35771,-11.80991 4.09467,0 -7.30576,6.24977 -1.2715,0 4.48259,-6.24977 z"
         style="font-style:italic;font-variant:normal;font-weight:normal;font-stretch:normal;font-family:'Monotype Corsiva';-inkscape-font-specification:'Monotype Corsiva Italic';fill:#3f409f;fill-opacity:0.94117647"
         id="path4182"
         inkscape:connector-curvature="0" />
      <path
         d="m 361.86125,548.07931 -0.84049,-0.86204 q 1.96114,-2.34905 3.90072,-3.4697 1.93958,-1.12065 3.36194,-1.12065 0.53878,0 0.84049,0.28017 0.32326,0.25861 0.32326,0.77583 0,0.62498 -0.15085,1.29306 -0.12931,0.64652 -0.86204,3.10333 3.29729,-3.29729 4.50414,-4.07313 2.02579,-1.3146 3.70676,-1.3146 1.0991,0 1.85338,1.03444 0.75429,1.03445 0.75429,3.12489 0,5.21532 -3.25419,9.91342 -3.25419,4.6981 -7.19801,4.6981 -1.55167,0 -3.10334,-0.84048 l -1.83183,7.1118 q -0.1724,0.64653 -0.1724,1.056 0,0.79738 0.60342,1.1422 0.92669,0.53877 3.90072,0.88359 l -0.28016,1.07754 q -3.4697,-0.28016 -5.45239,-0.28016 -2.04733,0 -5.30152,0.28016 l 0.28016,-1.07754 q 1.63787,-0.17241 2.3706,-0.90514 0.75428,-0.73273 1.20685,-2.60766 l 3.90072,-16.35716 q 1.0991,-4.56879 1.0991,-5.08602 0,-0.56032 -0.53878,-0.56032 -0.94824,0 -3.62055,2.78007 z m 4.35328,10.17204 q 1.70253,1.70252 3.49125,1.70252 2.58612,0 4.5257,-4.03002 1.96113,-4.03003 1.96113,-7.86609 0,-1.2284 -0.56032,-1.85338 -0.53877,-0.64653 -1.46546,-0.64653 -1.03445,0 -2.3275,1.01289 -2.00424,1.57322 -3.06023,3.12489 -0.75429,1.12065 -1.42237,3.87917 l -1.1422,4.67655 z"
         style="font-style:italic;font-variant:normal;font-weight:normal;font-stretch:normal;font-family:'Monotype Corsiva';-inkscape-font-specification:'Monotype Corsiva Italic';fill:#3f409f;fill-opacity:0.94117647"
         id="path4184"
         inkscape:connector-curvature="0" />
      <path
         d="m 395.63156,542.36831 1.42236,-0.30171 -1.61632,5.45238 q -0.96979,3.25419 -1.83183,7.49973 -0.47412,2.30595 -0.47412,2.97403 0,0.66807 0.53878,0.66807 0.34481,0 1.09909,-0.45257 1.33616,-0.79738 2.56456,-1.98268 l 0.68963,0.84049 q -2.4568,2.24129 -3.14643,2.71541 -1.37926,0.94824 -2.62922,1.40081 -0.81893,0.30172 -1.59476,0.30172 -0.56033,0 -0.84049,-0.25862 -0.28016,-0.25861 -0.28016,-0.75428 0,-0.32326 0.1724,-0.88359 l 0.86204,-2.93092 q -1.85338,2.21974 -4.41794,3.81451 -1.57322,0.99134 -2.88782,0.99134 -1.24996,0 -1.91804,-0.88358 -0.90513,-1.1853 -0.90513,-3.10334 0,-2.2844 1.20685,-5.08602 1.2284,-2.80162 3.27574,-5.08601 2.04734,-2.2844 4.31018,-3.36195 1.74563,-0.81893 4.4826,-0.81893 0.68963,0 1.40081,0.0862 l 0.51722,-0.84049 z m -2.67232,3.2973 q -1.16375,-0.23707 -1.96113,-0.23707 -1.93958,0 -3.3835,1.07755 -1.44391,1.056 -2.69386,3.83607 -1.2284,2.75851 -1.2284,5.51703 0,1.46547 0.49567,2.11199 0.49567,0.64653 1.29305,0.64653 1.48702,0 3.18954,-1.59477 1.70252,-1.61632 2.49991,-4.63345 l 1.78872,-6.72388 z"
         style="font-style:italic;font-variant:normal;font-weight:normal;font-stretch:normal;font-family:'Monotype Corsiva';-inkscape-font-specification:'Monotype Corsiva Italic';fill:#3f409f;fill-opacity:0.94117647"
         id="path4186"
         inkscape:connector-curvature="0" />
      <path
         d="m 403.45453,560.85901 -3.21109,0 1.50857,-5.7972 q 1.0991,-4.26708 1.91803,-8.10315 0.19396,-0.94824 0.19396,-1.1853 0,-0.51722 -0.47412,-0.51722 -0.32327,0 -0.99134,0.45257 -0.66808,0.43102 -2.41371,2.17664 l -0.66808,-0.75428 q 2.06889,-2.21975 4.11623,-3.31884 2.06889,-1.12065 3.16799,-1.12065 0.38791,0 0.60342,0.19396 0.23706,0.1724 0.23706,0.45256 0,0.28017 -0.28016,1.48702 l -0.92669,3.85761 q 2.17664,-3.42659 4.91361,-5.86185 1.31461,-1.16375 2.1982,-1.16375 0.64653,0 1.07754,0.43102 0.43102,0.40947 0.43102,0.96979 0,0.58188 -0.43102,0.99135 -0.40946,0.40946 -2.09044,0.96979 -1.59477,0.53877 -2.60766,1.29305 -0.99134,0.75429 -2.19819,2.30595 -1.1853,1.55167 -1.65942,2.71542 -0.47412,1.1422 -1.44392,5.34463 l -0.96979,4.18088 z"
         style="font-style:italic;font-variant:normal;font-weight:normal;font-stretch:normal;font-family:'Monotype Corsiva';-inkscape-font-specification:'Monotype Corsiva Italic';fill:#3f409f;fill-opacity:0.94117647"
         id="path4188"
         inkscape:connector-curvature="0" />
      <path
         d="m 427.44073,542.36831 1.42236,-0.30171 -1.61632,5.45238 q -0.96979,3.25419 -1.83182,7.49973 -0.47412,2.30595 -0.47412,2.97403 0,0.66807 0.53877,0.66807 0.34481,0 1.0991,-0.45257 1.33615,-0.79738 2.56456,-1.98268 l 0.68963,0.84049 q -2.45681,2.24129 -3.14644,2.71541 -1.37926,0.94824 -2.62921,1.40081 -0.81894,0.30172 -1.59477,0.30172 -0.56033,0 -0.84049,-0.25862 -0.28016,-0.25861 -0.28016,-0.75428 0,-0.32326 0.17241,-0.88359 l 0.86204,-2.93092 q -1.85338,2.21974 -4.41794,3.81451 -1.57322,0.99134 -2.88783,0.99134 -1.24995,0 -1.91803,-0.88358 -0.90514,-1.1853 -0.90514,-3.10334 0,-2.2844 1.20685,-5.08602 1.2284,-2.80162 3.27574,-5.08601 2.04734,-2.2844 4.31019,-3.36195 1.74562,-0.81893 4.48259,-0.81893 0.68963,0 1.40081,0.0862 l 0.51722,-0.84049 z m -2.67231,3.2973 q -1.16375,-0.23707 -1.96114,-0.23707 -1.93958,0 -3.38349,1.07755 -1.44391,1.056 -2.69387,3.83607 -1.2284,2.75851 -1.2284,5.51703 0,1.46547 0.49567,2.11199 0.49567,0.64653 1.29306,0.64653 1.48701,0 3.18953,-1.59477 1.70253,-1.61632 2.49991,-4.63345 l 1.78873,-6.72388 z"
         style="font-style:italic;font-variant:normal;font-weight:normal;font-stretch:normal;font-family:'Monotype Corsiva';-inkscape-font-specification:'Monotype Corsiva Italic';fill:#3f409f;fill-opacity:0.94117647"
         id="path4190"
         inkscape:connector-curvature="0" />
      <path
         d="m 447.05207,539.41584 3.4266,-1.31461 -1.55167,6.03426 4.46104,0 -0.34481,1.53012 -4.46104,0 -1.89648,7.21956 q -0.88359,3.25419 -0.88359,4.52569 0,0.58188 0.23706,0.84049 0.25861,0.25861 0.68963,0.25861 0.66808,0 2.04734,-0.79739 1.81027,-1.05599 3.44814,-2.39215 l 0.81894,0.99134 q -4.71965,3.55591 -6.31442,4.35329 -1.59477,0.79738 -2.56456,0.79738 -0.79739,0 -1.27151,-0.58187 -0.45257,-0.58188 -0.45257,-1.89648 0,-1.55167 0.81894,-4.74121 l 2.21974,-8.57726 -3.49125,0 0.38792,-1.53012 3.4697,0 1.20685,-4.71965 z"
         style="font-style:italic;font-variant:normal;font-weight:normal;font-stretch:normal;font-family:'Monotype Corsiva';-inkscape-font-specification:'Monotype Corsiva Italic';fill:#3f409f;fill-opacity:0.94117647"
         id="path4192"
         inkscape:connector-curvature="0" />
      <path
         d="m 465.84449,542.73468 q 2.11199,0 3.5128,1.68097 1.40081,1.68097 1.40081,4.67655 0,4.78431 -3.36194,8.59882 -3.36195,3.79297 -7.11181,3.79297 -2.30595,0 -3.72831,-1.50857 -1.40081,-1.50856 -1.40081,-4.11623 0,-4.52569 2.58611,-8.36176 3.25419,-4.76275 8.10315,-4.76275 z m -1.83183,1.61632 q -1.83183,0 -3.5559,2.62921 -1.70252,2.60766 -1.70252,7.21956 0,2.80162 1.05599,4.41794 0.77584,1.1853 2.06889,1.1853 1.81028,0 3.29729,-2.24129 1.89648,-2.90938 1.89648,-7.21956 0,-3.23264 -0.88358,-4.6119 -0.86204,-1.37926 -2.17665,-1.37926 z"
         style="font-style:italic;font-variant:normal;font-weight:normal;font-stretch:normal;font-family:'Monotype Corsiva';-inkscape-font-specification:'Monotype Corsiva Italic';fill:#3f409f;fill-opacity:0.94117647"
         id="path4194"
         inkscape:connector-curvature="0" />
      <path
         d="m 489.4212,556.39797 0.60342,0.81893 q -2.88782,2.43526 -4.28863,3.23264 -1.93958,1.0991 -3.06023,1.0991 -0.51722,0 -0.84049,-0.30171 -0.32326,-0.28017 -0.32326,-0.64653 0,-0.36637 0.23706,-1.20685 l 0.75428,-2.62922 q -2.58611,2.78007 -4.31018,3.77141 -1.72408,0.99135 -3.10334,0.99135 -1.1422,0 -1.91803,-0.99135 -0.77583,-1.01289 -0.77583,-2.95247 0,-3.06023 2.09044,-7.0256 2.11199,-3.98693 4.67655,-5.88341 2.58611,-1.91803 4.71965,-1.91803 0.47412,0 1.42236,0.15086 1.0129,-4.20243 1.93959,-6.12047 0.92669,-1.93958 2.39215,-3.34039 1.46546,-1.40081 3.34039,-2.15509 1.89648,-0.77584 3.53435,-0.77584 0.86204,0 1.37926,0.45257 0.51723,0.45257 0.51723,1.1422 0,0.66808 -0.47412,1.0991 -0.47413,0.40947 -1.29306,0.40947 -0.53877,0 -2.00424,-0.21551 -1.46546,-0.21551 -2.00423,-0.21551 -0.75429,0 -1.33616,0.47412 -0.56032,0.45257 -1.07755,1.98268 -0.34481,0.9698 -1.57321,6.18512 l -3.06024,13.01676 q -0.53877,2.30595 -0.53877,3.06023 0,0.81894 0.62498,0.81894 0.38791,0 0.90514,-0.28017 0.73273,-0.40946 2.84472,-2.04733 z m -4.5688,-11.12028 q -1.72407,-0.38792 -2.43525,-0.38792 -1.44391,0 -2.82317,1.1422 -1.37926,1.12065 -2.67232,4.37484 -1.2715,3.25419 -1.2715,5.66789 0,1.0991 0.58187,1.81028 0.60343,0.68963 1.35771,0.68963 0.90514,0 2.06889,-0.79738 1.65942,-1.1853 2.62921,-2.88783 0.58188,-1.07754 1.57322,-5.27998 l 0.99134,-4.33173 z"
         style="font-style:italic;font-variant:normal;font-weight:normal;font-stretch:normal;font-family:'Monotype Corsiva';-inkscape-font-specification:'Monotype Corsiva Italic';fill:#3f409f;fill-opacity:0.94117647"
         id="path4196"
         inkscape:connector-curvature="0" />
      <path
         d="m 506.92053,542.36831 1.42236,-0.30171 -1.61632,5.45238 q -0.96979,3.25419 -1.83183,7.49973 -0.47412,2.30595 -0.47412,2.97403 0,0.66807 0.53878,0.66807 0.34481,0 1.09909,-0.45257 1.33616,-0.79738 2.56456,-1.98268 l 0.68963,0.84049 q -2.4568,2.24129 -3.14643,2.71541 -1.37926,0.94824 -2.62922,1.40081 -0.81893,0.30172 -1.59476,0.30172 -0.56033,0 -0.84049,-0.25862 -0.28016,-0.25861 -0.28016,-0.75428 0,-0.32326 0.17241,-0.88359 l 0.86203,-2.93092 q -1.85338,2.21974 -4.41794,3.81451 -1.57322,0.99134 -2.88782,0.99134 -1.24996,0 -1.91803,-0.88358 -0.90514,-1.1853 -0.90514,-3.10334 0,-2.2844 1.20685,-5.08602 1.2284,-2.80162 3.27574,-5.08601 2.04734,-2.2844 4.31018,-3.36195 1.74563,-0.81893 4.4826,-0.81893 0.68963,0 1.40081,0.0862 l 0.51722,-0.84049 z m -2.67231,3.2973 q -1.16375,-0.23707 -1.96114,-0.23707 -1.93958,0 -3.38349,1.07755 -1.44392,1.056 -2.69387,3.83607 -1.2284,2.75851 -1.2284,5.51703 0,1.46547 0.49567,2.11199 0.49567,0.64653 1.29305,0.64653 1.48702,0 3.18954,-1.59477 1.70252,-1.61632 2.49991,-4.63345 l 1.78873,-6.72388 z"
         style="font-style:italic;font-variant:normal;font-weight:normal;font-stretch:normal;font-family:'Monotype Corsiva';-inkscape-font-specification:'Monotype Corsiva Italic';fill:#3f409f;fill-opacity:0.94117647"
         id="path4198"
         inkscape:connector-curvature="0" />
      <path
         d="m 530.60502,561.7426 -0.77583,-10.43065 q -0.23706,-3.18954 -0.23706,-4.20243 0,-2.90938 0.81894,-5.34463 0.84048,-2.45681 2.95247,-5.25843 -2.52146,0 -5.15067,1.20685 -2.60766,1.20685 -3.83606,2.78007 -1.20686,1.57322 -1.20686,3.16799 0,0.73273 0.45257,1.55167 0.58188,1.03444 0.58188,1.57321 0,0.49567 -0.30171,0.79739 -0.30172,0.30171 -0.77584,0.30171 -0.68963,0 -1.20685,-0.71118 -0.64653,-0.94824 -0.64653,-2.34905 0,-2.62921 1.98269,-5.06447 1.98268,-2.43525 5.43083,-3.599 2.21975,-0.75429 6.46528,-1.03445 1.1422,-0.0862 2.3275,-0.21551 -2.90938,4.26709 -3.79296,7.13336 -0.88359,2.84472 -0.88359,7.73678 0,3.74986 0.38792,6.8532 l 4.13777,-4.41794 3.53436,-3.62056 q 5.34463,-5.49549 7.19801,-8.66347 1.40081,-2.39215 1.40081,-4.35329 0,-1.07755 -0.49568,-2.3706 -0.32326,-0.81894 -0.32326,-1.24995 0,-0.58188 0.43102,-1.0129 0.45257,-0.43102 1.05599,-0.43102 0.81894,0 1.37926,0.84049 0.56033,0.84049 0.56033,2.62921 0,1.74563 -0.73273,3.70676 -0.73274,1.93959 -3.08179,4.95672 -2.34905,3.01713 -7.26266,7.99539 -5.15067,5.21532 -10.38755,11.09873 z"
         style="font-style:italic;font-variant:normal;font-weight:normal;font-stretch:normal;font-family:'Monotype Corsiva';-inkscape-font-specification:'Monotype Corsiva Italic';fill:#3f409f;fill-opacity:0.94117647"
         id="path4200"
         inkscape:connector-curvature="0" />
      <path
         d="m 560.06514,555.44973 0.71118,0.94824 q -5.27998,5.02136 -9.05139,5.02136 -1.53012,0 -2.34905,-1.03444 -0.79739,-1.03445 -0.79739,-3.31884 0,-4.6119 2.80162,-9.1807 3.14644,-5.19377 7.52128,-5.19377 1.53011,0 2.3275,0.77583 0.81893,0.75428 0.81893,2.09044 0,1.40081 -0.96979,2.75852 -0.96979,1.35771 -3.4697,2.82317 -1.24995,0.71118 -5.34463,2.56456 -0.19396,1.16375 -0.19396,2.21975 0,1.53011 0.47412,2.13354 0.49567,0.60342 1.42236,0.60342 0.88359,0 1.93959,-0.49567 1.42236,-0.66808 4.15933,-2.71541 z m -7.54283,-3.12489 q 3.4697,-1.55167 5.21533,-3.34039 1.1853,-1.24996 1.1853,-2.47836 0,-0.92669 -0.49567,-1.46546 -0.47412,-0.56033 -1.24996,-0.56033 -0.79738,0 -1.55167,0.60343 -1.01289,0.79738 -1.70252,2.4137 -0.99134,2.37061 -1.40081,4.82741 z"
         style="font-style:italic;font-variant:normal;font-weight:normal;font-stretch:normal;font-family:'Monotype Corsiva';-inkscape-font-specification:'Monotype Corsiva Italic';fill:#3f409f;fill-opacity:0.94117647"
         id="path4202"
         inkscape:connector-curvature="0" />
      <path
         d="m 564.41843,547.7776 -0.73273,-0.75429 q 2.75852,-2.62921 4.39639,-3.49125 1.63787,-0.86203 2.80162,-0.86203 0.45257,0 0.71118,0.19395 0.25861,0.19396 0.25861,0.45257 0,0.19396 -0.10776,0.68963 l -0.96979,4.33174 q 2.1982,-2.43525 5.51704,-4.54725 1.76718,-1.09909 2.90937,-1.09909 0.84049,0 1.31461,0.53877 0.47412,0.53877 0.47412,1.55167 0,0.66808 -0.19396,1.50856 -0.34481,1.40081 -1.81027,6.09891 -1.37926,4.39639 -1.37926,5.84031 0,0.43101 0.1293,0.64652 0.12931,0.21551 0.36637,0.21551 0.62497,0 1.96113,-1.20685 0.94824,-0.86204 1.89648,-1.59477 l 0.53878,0.77584 q -1.98269,2.19819 -4.11623,3.53435 -1.35771,0.86203 -2.2413,0.86203 -0.81893,0 -1.2715,-0.60342 -0.45257,-0.58188 -0.45257,-1.91803 0,-1.91804 2.39215,-9.54706 0.73273,-2.71542 0.73273,-3.16799 0,-0.66808 -0.79738,-0.66808 -0.86204,0 -2.21975,0.90514 -2.02578,1.33616 -3.38349,3.14643 -0.86204,1.16375 -1.44391,3.70676 l -1.74563,7.52128 -3.21109,0 q 0.90514,-3.23264 1.57322,-6.18512 l 1.91803,-8.18935 q 0.10776,-0.49567 0.10776,-0.71118 0,-0.58188 -0.43102,-0.58188 -0.34482,0 -0.99134,0.45257 -1.33616,0.88359 -2.49991,2.1551 z"
         style="font-style:italic;font-variant:normal;font-weight:normal;font-stretch:normal;font-family:'Monotype Corsiva';-inkscape-font-specification:'Monotype Corsiva Italic';fill:#3f409f;fill-opacity:0.94117647"
         id="path4204"
         inkscape:connector-curvature="0" />
      <path
         d="m 595.40864,555.44973 0.71118,0.94824 q -5.27997,5.02136 -9.05139,5.02136 -1.53011,0 -2.34905,-1.03444 -0.79738,-1.03445 -0.79738,-3.31884 0,-4.6119 2.80162,-9.1807 3.14643,-5.19377 7.52127,-5.19377 1.53012,0 2.3275,0.77583 0.81894,0.75428 0.81894,2.09044 0,1.40081 -0.96979,2.75852 -0.9698,1.35771 -3.4697,2.82317 -1.24996,0.71118 -5.34463,2.56456 -0.19396,1.16375 -0.19396,2.21975 0,1.53011 0.47412,2.13354 0.49567,0.60342 1.42236,0.60342 0.88359,0 1.93958,-0.49567 1.42236,-0.66808 4.15933,-2.71541 z m -7.54282,-3.12489 q 3.4697,-1.55167 5.21532,-3.34039 1.1853,-1.24996 1.1853,-2.47836 0,-0.92669 -0.49567,-1.46546 -0.47412,-0.56033 -1.24995,-0.56033 -0.79739,0 -1.55167,0.60343 -1.01289,0.79738 -1.70252,2.4137 -0.99135,2.37061 -1.40081,4.82741 z"
         style="font-style:italic;font-variant:normal;font-weight:normal;font-stretch:normal;font-family:'Monotype Corsiva';-inkscape-font-specification:'Monotype Corsiva Italic';fill:#3f409f;fill-opacity:0.94117647"
         id="path4206"
         inkscape:connector-curvature="0" />
      <path
         d="m 612.73559,544.97598 q -1.96113,0.53877 -3.599,0.53877 -0.90514,0 -2.00424,-0.10776 -1.53011,-0.1724 -2.04734,-0.1724 -0.64652,0 -0.99134,0.30171 -0.34481,0.30171 -0.34481,0.77583 0,0.73273 0.77583,0.79739 0.96979,0.10775 0.96979,0.88359 0,0.36636 -0.30171,0.66807 -0.30171,0.28017 -0.68963,0.28017 -0.77583,0 -1.44391,-0.75429 -0.64653,-0.77583 -0.64653,-1.91803 0,-1.46546 1.2284,-2.52146 1.2284,-1.05599 3.03868,-1.05599 0.94824,0 2.56456,0.25861 2.60766,0.40947 3.74986,0.40947 1.16375,0 2.17665,-0.77584 0.47412,-0.34481 0.77583,-0.34481 0.25861,0 0.43102,0.17241 0.19396,0.15085 0.19396,0.30171 0,0.21551 -0.23706,0.47412 -0.73273,0.90514 -3.3404,3.40504 l -6.68078,6.40063 q -2.93093,2.80162 -4.87051,4.5257 1.2284,-0.12931 1.91803,-0.12931 0.96979,0 1.76718,0.17241 0.79738,0.15085 2.56456,0.73273 2.30594,0.79738 3.74986,0.79738 0.90514,0 1.37926,-0.40946 0.49567,-0.43102 0.49567,-1.07755 0,-0.36637 -0.34482,-1.03445 -0.30171,-0.64652 -0.30171,-0.99134 0,-0.51722 0.34481,-0.88359 0.34482,-0.36636 0.86204,-0.36636 0.62498,0 1.03445,0.51722 0.43101,0.49567 0.43101,1.29306 0,1.20685 -0.88358,2.54301 -0.88359,1.3146 -2.21975,2.02578 -1.33616,0.71118 -3.29729,0.71118 -1.61632,0 -4.71965,-0.92669 -2.58611,-0.75428 -3.79297,-0.75428 -0.73273,0 -1.70252,0.77583 -0.56032,0.47412 -0.96979,0.47412 -0.79739,0 -0.79739,-0.38791 0,-0.36637 0.45257,-0.88359 1.20686,-1.42236 6.12047,-5.8834 3.31884,-3.01713 5.81875,-5.49549 l 3.38349,-3.36194 z"
         style="font-style:italic;font-variant:normal;font-weight:normal;font-stretch:normal;font-family:'Monotype Corsiva';-inkscape-font-specification:'Monotype Corsiva Italic';fill:#3f409f;fill-opacity:0.94117647"
         id="path4208"
         inkscape:connector-curvature="0" />
      <path
         d="m 633.07965,543.31655 3.06023,0 -2.02579,7.52128 q -1.78873,6.55148 -1.78873,7.45662 0,0.40947 0.19396,0.62498 0.19396,0.2155 0.43102,0.2155 0.36637,0 0.86204,-0.32326 0.71118,-0.49567 2.69386,-2.49991 l 0.71118,0.79739 q -4.33173,4.50414 -6.37907,4.50414 -0.68963,0 -1.1853,-0.53877 -0.47412,-0.51722 -0.47412,-1.48702 0,-1.12064 0.47412,-2.99557 -1.91803,2.19819 -4.7412,3.85761 -1.87494,1.0991 -3.25419,1.0991 -0.75429,0 -1.18531,-0.49567 -0.43101,-0.49567 -0.43101,-1.57322 0,-0.84049 0.19395,-1.81028 0.28017,-1.35771 1.42237,-5.45238 1.44391,-5.19378 1.44391,-6.22822 0,-0.60343 -0.43102,-0.60343 -0.38792,0 -1.056,0.40947 -0.66808,0.38792 -2.2844,1.91803 l -0.94824,-0.75428 q 2.88783,-2.58611 4.39639,-3.38349 1.53012,-0.81894 2.45681,-0.81894 0.51722,0 0.84049,0.38792 0.32326,0.36636 0.32326,1.16375 0,1.48701 -1.55167,7.30576 -1.37926,5.23688 -1.37926,5.96961 0,0.45257 0.28016,0.77583 0.30172,0.32327 0.64653,0.32327 1.20685,0 3.4266,-1.98269 2.21975,-2.00424 2.90938,-4.54725 l 2.34905,-8.83588 z"
         style="font-style:italic;font-variant:normal;font-weight:normal;font-stretch:normal;font-family:'Monotype Corsiva';-inkscape-font-specification:'Monotype Corsiva Italic';fill:#3f409f;fill-opacity:0.94117647"
         id="path4210"
         inkscape:connector-curvature="0" />
      <path
         d="m 650.14802,555.44973 0.71118,0.94824 q -5.27997,5.02136 -9.05139,5.02136 -1.53011,0 -2.34905,-1.03444 -0.79738,-1.03445 -0.79738,-3.31884 0,-4.6119 2.80162,-9.1807 3.14643,-5.19377 7.52127,-5.19377 1.53012,0 2.3275,0.77583 0.81894,0.75428 0.81894,2.09044 0,1.40081 -0.96979,2.75852 -0.9698,1.35771 -3.4697,2.82317 -1.24996,0.71118 -5.34463,2.56456 -0.19396,1.16375 -0.19396,2.21975 0,1.53011 0.47412,2.13354 0.49567,0.60342 1.42236,0.60342 0.88359,0 1.93958,-0.49567 1.42236,-0.66808 4.15933,-2.71541 z m -7.54282,-3.12489 q 3.4697,-1.55167 5.21532,-3.34039 1.1853,-1.24996 1.1853,-2.47836 0,-0.92669 -0.49567,-1.46546 -0.47412,-0.56033 -1.24995,-0.56033 -0.79739,0 -1.55167,0.60343 -1.01289,0.79738 -1.70252,2.4137 -0.99135,2.37061 -1.40081,4.82741 z"
         style="font-style:italic;font-variant:normal;font-weight:normal;font-stretch:normal;font-family:'Monotype Corsiva';-inkscape-font-specification:'Monotype Corsiva Italic';fill:#3f409f;fill-opacity:0.94117647"
         id="path4212"
         inkscape:connector-curvature="0" />
      <path
         d="m 662.81997,555.66524 0.73273,0.77583 q -1.68097,1.89648 -3.98692,3.4697 -2.2844,1.55166 -3.77141,1.55166 -0.66808,0 -1.0991,-0.51722 -0.43102,-0.49567 -0.43102,-1.37926 0,-1.72407 1.33616,-7.1549 l 2.3275,-9.46086 q 1.27151,-5.12912 2.13354,-6.87475 1.33616,-2.65076 3.77142,-4.11622 2.4568,-1.46547 5.17222,-1.46547 0.92669,0 1.44391,0.45257 0.53877,0.43102 0.53877,1.056 0,0.68963 -0.51722,1.1422 -0.51722,0.43101 -1.50856,0.43101 -0.64653,0 -1.83183,-0.2155 -1.03445,-0.17241 -1.91803,-0.17241 -0.88359,0 -1.33616,0.36636 -0.62498,0.51723 -1.1422,2.17665 -0.49567,1.65942 -1.63787,6.55148 l -2.13354,9.02984 q -1.59477,6.78854 -1.59477,7.09025 0,0.68963 0.49567,0.68963 0.47412,0 1.37926,-0.56032 1.78873,-1.12065 3.57745,-2.86627 z"
         style="font-style:italic;font-variant:normal;font-weight:normal;font-stretch:normal;font-family:'Monotype Corsiva';-inkscape-font-specification:'Monotype Corsiva Italic';fill:#3f409f;fill-opacity:0.94117647"
         id="path4214"
         inkscape:connector-curvature="0" />
      <path
         d="m 679.15555,542.36831 1.42236,-0.30171 -1.61632,5.45238 q -0.96979,3.25419 -1.83183,7.49973 -0.47412,2.30595 -0.47412,2.97403 0,0.66807 0.53877,0.66807 0.34482,0 1.0991,-0.45257 1.33616,-0.79738 2.56456,-1.98268 l 0.68963,0.84049 q -2.45681,2.24129 -3.14644,2.71541 -1.37926,0.94824 -2.62921,1.40081 -0.81893,0.30172 -1.59477,0.30172 -0.56032,0 -0.84048,-0.25862 -0.28017,-0.25861 -0.28017,-0.75428 0,-0.32326 0.17241,-0.88359 l 0.86204,-2.93092 q -1.85338,2.21974 -4.41794,3.81451 -1.57322,0.99134 -2.88783,0.99134 -1.24995,0 -1.91803,-0.88358 -0.90514,-1.1853 -0.90514,-3.10334 0,-2.2844 1.20685,-5.08602 1.22841,-2.80162 3.27575,-5.08601 2.04733,-2.2844 4.31018,-3.36195 1.74563,-0.81893 4.48259,-0.81893 0.68963,0 1.40081,0.0862 l 0.51723,-0.84049 z m -2.67232,3.2973 q -1.16375,-0.23707 -1.96113,-0.23707 -1.93959,0 -3.3835,1.07755 -1.44391,1.056 -2.69386,3.83607 -1.22841,2.75851 -1.22841,5.51703 0,1.46547 0.49567,2.11199 0.49568,0.64653 1.29306,0.64653 1.48701,0 3.18954,-1.59477 1.70252,-1.61632 2.4999,-4.63345 l 1.78873,-6.72388 z"
         style="font-style:italic;font-variant:normal;font-weight:normal;font-stretch:normal;font-family:'Monotype Corsiva';-inkscape-font-specification:'Monotype Corsiva Italic';fill:#3f409f;fill-opacity:0.94117647"
         id="path4216"
         inkscape:connector-curvature="0" />
    </g>
  </g>
</svg>
